<svg width="160" height="45" viewBox="0 0 160 45" fill="none" xmlns="http://www.w3.org/2000/svg">
<rect x="1" y="1" width="158" height="43" rx="4" fill="white"/>
<rect x="1" y="1" width="158" height="43" rx="4" stroke="#B53B1B" stroke-width="2"/>
<path d="M32.6591 17.9091C32.5568 17.0455 32.142 16.375 31.4148 15.8977C30.6875 15.4205 29.7955 15.1818 28.7386 15.1818C27.9659 15.1818 27.2898 15.3068 26.7102 15.5568C26.1364 15.8068 25.6875 16.1506 25.3636 16.5881C25.0455 17.0256 24.8864 17.5227 24.8864 18.0795C24.8864 18.5455 24.9972 18.946 25.2188 19.2812C25.446 19.6108 25.7358 19.8864 26.0881 20.108C26.4403 20.3239 26.8097 20.5028 27.196 20.6449C27.5824 20.7812 27.9375 20.892 28.2614 20.9773L30.0341 21.4545C30.4886 21.5739 30.9943 21.7386 31.5511 21.9489C32.1136 22.1591 32.6506 22.446 33.1619 22.8097C33.679 23.1676 34.1051 23.6278 34.4403 24.1903C34.7756 24.7528 34.9432 25.4432 34.9432 26.2614C34.9432 27.2045 34.696 28.0568 34.2017 28.8182C33.7131 29.5795 32.9972 30.1847 32.054 30.6335C31.1165 31.0824 29.9773 31.3068 28.6364 31.3068C27.3864 31.3068 26.304 31.1051 25.3892 30.7017C24.4801 30.2983 23.7642 29.7358 23.2415 29.0142C22.7244 28.2926 22.4318 27.4545 22.3636 26.5H24.5455C24.6023 27.1591 24.8239 27.7045 25.2102 28.1364C25.6023 28.5625 26.0966 28.8807 26.6932 29.0909C27.2955 29.2955 27.9432 29.3977 28.6364 29.3977C29.4432 29.3977 30.1676 29.267 30.8097 29.0057C31.4517 28.7386 31.9602 28.3693 32.3352 27.8977C32.7102 27.4205 32.8977 26.8636 32.8977 26.2273C32.8977 25.6477 32.7358 25.1761 32.4119 24.8125C32.0881 24.4489 31.6619 24.1534 31.1335 23.9261C30.6051 23.6989 30.0341 23.5 29.4205 23.3295L27.2727 22.7159C25.9091 22.3239 24.8295 21.7642 24.0341 21.0369C23.2386 20.3097 22.8409 19.358 22.8409 18.1818C22.8409 17.2045 23.1051 16.3523 23.6335 15.625C24.1676 14.892 24.8835 14.3239 25.7812 13.9205C26.6847 13.5114 27.6932 13.3068 28.8068 13.3068C29.9318 13.3068 30.9318 13.5085 31.8068 13.9119C32.6818 14.3097 33.375 14.8551 33.8864 15.5483C34.4034 16.2415 34.6761 17.0284 34.7045 17.9091H32.6591ZM53.1456 22.2727C53.1456 24.1136 52.8132 25.7045 52.1484 27.0455C51.4837 28.3864 50.5717 29.4205 49.4126 30.1477C48.2536 30.875 46.9297 31.2386 45.4411 31.2386C43.9524 31.2386 42.6286 30.875 41.4695 30.1477C40.3104 29.4205 39.3984 28.3864 38.7337 27.0455C38.0689 25.7045 37.7365 24.1136 37.7365 22.2727C37.7365 20.4318 38.0689 18.8409 38.7337 17.5C39.3984 16.1591 40.3104 15.125 41.4695 14.3977C42.6286 13.6705 43.9524 13.3068 45.4411 13.3068C46.9297 13.3068 48.2536 13.6705 49.4126 14.3977C50.5717 15.125 51.4837 16.1591 52.1484 17.5C52.8132 18.8409 53.1456 20.4318 53.1456 22.2727ZM51.1001 22.2727C51.1001 20.7614 50.8473 19.4858 50.3416 18.446C49.8416 17.4062 49.1626 16.6193 48.3047 16.0852C47.4524 15.5511 46.4979 15.2841 45.4411 15.2841C44.3842 15.2841 43.4268 15.5511 42.5689 16.0852C41.7166 16.6193 41.0376 17.4062 40.532 18.446C40.032 19.4858 39.782 20.7614 39.782 22.2727C39.782 23.7841 40.032 25.0597 40.532 26.0994C41.0376 27.1392 41.7166 27.9261 42.5689 28.4602C43.4268 28.9943 44.3842 29.2614 45.4411 29.2614C46.4979 29.2614 47.4524 28.9943 48.3047 28.4602C49.1626 27.9261 49.8416 27.1392 50.3416 26.0994C50.8473 25.0597 51.1001 23.7841 51.1001 22.2727ZM56.6996 31V13.5455H62.5973C63.9609 13.5455 65.0803 13.7784 65.9553 14.2443C66.8303 14.7045 67.478 15.3381 67.8984 16.1449C68.3189 16.9517 68.5291 17.8693 68.5291 18.8977C68.5291 19.9261 68.3189 20.8381 67.8984 21.6335C67.478 22.429 66.8331 23.054 65.9638 23.5085C65.0945 23.9574 63.9837 24.1818 62.6314 24.1818H57.8587V22.2727H62.5632C63.495 22.2727 64.245 22.1364 64.8132 21.8636C65.3871 21.5909 65.8018 21.2045 66.0575 20.7045C66.3189 20.1989 66.4496 19.5966 66.4496 18.8977C66.4496 18.1989 66.3189 17.5881 66.0575 17.0653C65.7962 16.5426 65.3786 16.1392 64.8047 15.8551C64.2308 15.5653 63.4723 15.4205 62.5291 15.4205H58.8132V31H56.6996ZM64.9155 23.1591L69.2109 31H66.7564L62.5291 23.1591H64.9155ZM71.0966 15.4205V13.5455H84.1875V15.4205H78.6989V31H76.5852V15.4205H71.0966Z" fill="#402101"/>
<path d="M113.625 18.8748L118.458 14.0415M118.458 14.0415L123.292 18.8748M118.458 14.0415V30.9582M135.375 26.1248L130.542 30.9582M130.542 30.9582L125.708 26.1248M130.542 30.9582V14.0415" stroke="#402101" stroke-width="2" stroke-linecap="round" stroke-linejoin="round"/>
</svg>
